<?xml version="1.0" encoding="UTF-8"?>
<svg id="Layer_2" data-name="Layer 2" xmlns="http://www.w3.org/2000/svg" xmlns:xlink="http://www.w3.org/1999/xlink" viewBox="0 0 800 1080">
  <defs>
    <style>
      .cls-1 {
        fill: #2d9826;
      }

      .cls-2 {
        fill: url(#linear-gradient);
      }

      .cls-3 {
        fill: #289620;
      }
    </style>
    <linearGradient id="linear-gradient" x1="400" y1="1080" x2="400" y2="0" gradientUnits="userSpaceOnUse">
      <stop offset=".27" stop-color="#30b832"/>
      <stop offset=".34" stop-color="#3abc39"/>
      <stop offset=".47" stop-color="#58c94d"/>
      <stop offset=".64" stop-color="#87de6d"/>
      <stop offset=".8" stop-color="#baf590"/>
    </linearGradient>
  </defs>
  <g id="Tablet_-_800" data-name="Tablet - 800">
    <g id="Earth">
      <rect class="cls-2" width="800" height="1080"/>
      <path class="cls-3" d="M642.56,0c6.02,10.29,13.45,22.2,14.8,34.38,2.02,18.24-3.9,35.99-4.85,54.04l8.46-3.92c-4.94-46.02,48.89-50.36,78.84-32.17,1.92,5.91-11.09,27.79-15.38,33.01-12.4,15.11-30.88,24.34-49.76,14.19-4.81-2.58-7.28-6.53-11.78-9.15l-11.14,4.25c-3.08,2.65.38,17.2,1.7,21.16,7.19,21.48,30.78,38.43,53.68,33.24l2,10.93c-18.54,3.22-37.79-4.01-51.17-16.86l-4.22,5.44c18.88,30.21-3.82,52.17-33.03,58.64-3.31.73-15.65,3.31-17.42,1.51-7.73-25.9.68-67.64,34.84-65.64,7.43.43,12.25,5.44,16.19-3.62-7-10.26-12.91-21.9-13.73-34.61-1.16-17.97,6.06-37.75,6.93-55.63.9-18.66-6.7-36.28-19.86-49.17h14.9ZM733.95,54.68c-26.27-12.16-70.92-11.31-67.53,27.78l45.12-19.81c2.12.48,2.33,4.84-.04,5.8l-42.12,18c1.39,5.08,8.87,9.19,13.69,10.64,25.01,7.57,45.62-21.32,50.87-42.41ZM645.55,149.04c-34.74-8.49-43.68,29.04-38.75,55.63,26.28-1.32,63.78-21.37,42.73-51.66l-25.84,34.28c-1.26,1.11-4.67.51-4.98-1.02-.48-2.38,22.92-29.02,25.88-33.72.77-1.23,1.26-1.94.96-3.51Z"/>
      <path class="cls-1" d="M189.82,110.68c-9.06-15.38-30.16-30.88-47.32-17.68-3.94,3.04-5.04,8.9-10.5,7.99,10.66-27.8,21.97-47.25,11.19-77.68-1.49-4.18-9.34-19.18-14.08-23.31h-17.79c11.22,8.65,20.86,19.16,22.27,34.04-10.11,5.38-10.17-2.96-16.58-8.55-22.3-19.44-51.31.12-64.42,20.6-6.29,9.82-6.61,9.95,3.49,16.33,23.82,15.01,62.39,19.73,69.67-15.19.29-1.42-.01-4.66.36-5.13.47-.59,7.38-.92,8.88-2.11,6.21,28.38-18.69,54.47-21.03,81.47-1.77,20.48,6.32,38.69,21.04,52.52-2.86.08-6.3,5.54-8.51,5.67-1.15.07-7.61-3.95-9.94-4.7-29.75-9.63-48.93,23.02-50.58,48.51-.78,12.06.96,10.89,12.48,11.59,26.79,1.63,57.29-8.37,54.54-40.54-.25-2.87-2.22-6.71-1.99-8.99.38-3.88,6.8-4.43,7.03-8.51,8.2,3.87,20.11,11.61,29.48,11.02,3.72-.24,2.84-11.38,2.38-11.93-.43-.51-7.84-1.25-9.69-1.8-29.86-8.93-42.19-41.52-30.19-69.3,6.29.28,4.68,7.91,7.44,13.05,9.89,18.4,34.24,14.09,49.22,5.12,7.46-4.47,7.71-4.76,3.15-12.49ZM55.06,54.36c7.72-17.02,29.11-36.1,48.96-29.88,5.87,1.85,12.92,7.54,14.98,13.51-5.26,2.04-42.53,7.32-43.96,9.06-1.09,1.32.47,6.04,3.32,4.9l41.63-8.95c-3.81,34.82-44.85,28.02-64.93,11.36ZM107.98,225.48c-2.05.84-9.87,3.52-11.48,3.52h-24.5c-.48-23.31,14.78-58.08,43.54-48.04,1.29.45,6.14,1.83,5.45,3.52-1.83,4.47-27.76,21.24-32.51,26.5-2.78,2.14-1.59,5.47,1.98,5.06,4.21-.5,28.06-23.74,34.06-27.02,1.91-.75,2.2,3.32,2.36,4.6,1.92,15.44-4.75,26.07-18.9,31.86ZM139.01,107.01c1.31-1.32,29.24,8.57,32.41,7.9,1.41-.29,2.14-3.08,1.58-3.9-.96-1.4-28.96-6.56-33-8.02,13.98-21.99,39.8-4.64,47.92,13.38-14.85,12.9-46.54,16.45-48.91-9.36Z"/>
    </g>
  </g>
</svg>