<?xml version="1.0" encoding="UTF-8"?>
<svg id="Layer_2" data-name="Layer 2" xmlns="http://www.w3.org/2000/svg" xmlns:xlink="http://www.w3.org/1999/xlink" viewBox="0 0 1920 1080">
  <defs>
    <style>
      .cls-1 {
        fill: url(#linear-gradient);
      }

      .cls-2 {
        fill: #289620;
      }
    </style>
    <linearGradient id="linear-gradient" x1="960" y1="1080" x2="960" y2="0" gradientUnits="userSpaceOnUse">
      <stop offset=".27" stop-color="#30b832"/>
      <stop offset=".34" stop-color="#3abc39"/>
      <stop offset=".47" stop-color="#58c94d"/>
      <stop offset=".64" stop-color="#87de6d"/>
      <stop offset=".8" stop-color="#baf590"/>
    </linearGradient>
  </defs>
  <g id="Green">
    <rect class="cls-1" width="1920" height="1080"/>
    <path class="cls-2" d="M1580.02,0c10.39,17.76,23.22,38.32,25.55,59.36,3.49,31.5-6.74,62.13-8.38,93.3l14.6-6.77c-8.53-79.46,84.41-86.95,136.11-55.54,3.32,10.2-19.15,47.97-26.55,56.99-21.4,26.08-53.31,42.02-85.9,24.5-8.3-4.46-12.57-11.28-20.34-15.8l-19.23,7.33c-5.32,4.58.65,29.7,2.94,36.53,12.41,37.08,53.15,66.35,92.67,57.38l3.45,18.86c-32,5.56-65.25-6.92-88.34-29.11l-7.29,9.39c32.6,52.15-6.6,90.07-57.02,101.24-5.72,1.27-27.01,5.71-30.07,2.6-13.35-44.72,1.17-116.77,60.15-113.32,12.83.75,21.15,9.38,27.94-6.25-12.08-17.71-22.29-37.81-23.7-59.75-2.01-31.02,10.47-65.18,11.96-96.05,1.56-32.22-11.57-62.64-34.29-84.89h25.73ZM1737.78,94.4c-45.35-21-122.43-19.52-116.58,47.97l77.9-34.2c3.66.84,4.02,8.36-.06,10l-72.71,31.07c2.39,8.77,15.32,15.86,23.64,18.38,43.17,13.06,78.77-36.81,87.82-73.22ZM1585.17,257.3c-59.97-14.65-75.4,50.14-66.89,96.04,45.37-2.28,110.1-36.89,73.77-89.19l-44.61,59.19c-2.18,1.92-8.07.88-8.6-1.77-.82-4.11,39.56-50.09,44.67-58.21,1.33-2.12,2.18-3.36,1.66-6.06Z"/>
  </g>
</svg>