<?xml version="1.0" encoding="UTF-8"?>
<svg id="Layer_2" data-name="Layer 2" xmlns="http://www.w3.org/2000/svg" xmlns:xlink="http://www.w3.org/1999/xlink" viewBox="0 0 470 1080">
  <defs>
    <style>
      .cls-1 {
        fill: #309a29;
      }

      .cls-2 {
        fill: #219631;
      }

      .cls-3 {
        fill: url(#linear-gradient);
      }
    </style>
    <linearGradient id="linear-gradient" x1="235" y1="1080" x2="235" y2="0" gradientUnits="userSpaceOnUse">
      <stop offset=".27" stop-color="#30b832"/>
      <stop offset=".34" stop-color="#3abc39"/>
      <stop offset=".47" stop-color="#58c94d"/>
      <stop offset=".64" stop-color="#87de6d"/>
      <stop offset=".8" stop-color="#baf590"/>
    </linearGradient>
  </defs>
  <g id="Mobile_-_470" data-name="Mobile - 470">
    <g id="Earth">
      <rect class="cls-3" width="470" height="1080"/>
      <path class="cls-1" d="M376.37,221.18c-1.24-6.4,3.11-4.7,5.99-6.71s1.31-6.71,2.03-10.12c5.43-25.94,33.39-28.17,54.47-19.62,8.24,3.34,8.45,3.27,5.15,11.8-7.1,18.33-25.93,39.44-47.38,29.26-2.91-1.38-9.15-7.6-9.91-7.75-2.13-.41-7.02,4.54-10.34,3.13ZM440.45,190.34c-21.45-8.99-51.25-8.82-51.92,20.9,5.36-.68,34.37-16.42,36.48-14.34.35.34.19,3.35-1.12,3.84l-32.04,13.83c2.1,7.29,12.79,9.45,19.35,8.82,13.5-1.29,27.27-20.28,29.25-33.05Z"/>
      <path class="cls-1" d="M70.11,62.19c-3.74,2.65-3.91-.63-6.03-1.88s-4.67,1.11-7.06,1.64c-18.18,4.06-27.72-13.19-28.37-29.17-.25-6.25-.36-6.36,6.06-6.72,13.79-.78,32.77,5.14,32.48,21.83-.04,2.27-2.21,8.06-2.08,8.59.36,1.48,4.94,3.18,5.01,5.71ZM31.77,30.13c.47,16.34,9.24,35.36,28.45,27.16-1.99-3.23-20.49-17.23-19.77-19.18.12-.32,2.09-1.09,2.78-.4l18.16,16.49c4.05-3.46,2.33-10.93.02-14.95-4.75-8.26-20.9-11.56-29.65-9.13Z"/>
      <path class="cls-2" d="M440.56,851.1c-1.79-1-10.64,2.39-11.45,2.27-1-.15-8.62-12.73-15.71-11.67-4.98.74-10.39,10.47-12.35,11.43-2.09,1.02-12.94-6.31-13.93,1.89-1.39,11.48,1.96,26.72,12.21,33.37,2.39,1.55,12.42,4.73,12.58,5.4.57,2.41-.48,6.51-.05,9.23-.9,1-9.23-4.96-11.4-4.95-2.35,0-3.21,3.33-2.29,4.84.49.79,15.23,7.19,17.13,7.11,1.37-.06,15.72-6.36,16.19-7.11.92-1.51.07-4.83-2.29-4.84-2.17-.01-10.5,5.95-11.4,4.95.45-2.15-.72-8.46.12-9.75.32-.5,8.44-2.78,11.03-4.29,6.26-3.63,10.51-9.25,12.27-16.38.94-3.79,2.9-19.53-.66-21.5ZM409.12,887.52c-14.47-3.62-17.73-17.74-17.01-30.97,12.99.49,19.65,11.23,20.61,23.36.33,4.09,1.54,8.9-3.6,7.61ZM413.76,865.82c-2.25-2.51-4.28-7.52-7.67-9.9,3.37-7.03,7.56-12.05,14.21-5.34,8.07,8.14-3.34,7.73-4.5,15.86-1.29.22-1.25.26-2.04-.62ZM416.81,888.19c-1.51-14.5,4.38-30.92,20.74-31.64,1.28,15.09-4.08,29.56-20.74,31.64Z"/>
      <path class="cls-2" d="M71.56,267.1c-1.79-1-10.64,2.39-11.45,2.27-1-.15-8.62-12.73-15.71-11.67-4.98.74-10.39,10.47-12.35,11.43-2.09,1.02-12.94-6.31-13.93,1.89-1.39,11.48,1.96,26.72,12.21,33.37,2.39,1.55,12.42,4.73,12.58,5.4.57,2.41-.48,6.51-.05,9.23-.9,1-9.23-4.96-11.4-4.95-2.35,0-3.21,3.33-2.29,4.84.49.79,15.23,7.19,17.13,7.11,1.37-.06,15.72-6.36,16.19-7.11.92-1.51.07-4.83-2.29-4.84-2.17-.01-10.5,5.95-11.4,4.95.45-2.15-.72-8.46.12-9.75.32-.5,8.44-2.78,11.03-4.29,6.26-3.63,10.51-9.25,12.27-16.38.94-3.79,2.9-19.53-.66-21.5ZM40.12,303.52c-14.47-3.62-17.73-17.74-17.01-30.97,12.99.49,19.65,11.23,20.61,23.36.33,4.09,1.54,8.9-3.6,7.61ZM44.76,281.82c-2.25-2.51-4.28-7.52-7.67-9.9,3.37-7.03,7.56-12.05,14.21-5.34,8.07,8.14-3.34,7.73-4.5,15.86-1.29.22-1.25.26-2.04-.62ZM47.81,304.19c-1.51-14.5,4.38-30.92,20.74-31.64,1.28,15.09-4.08,29.56-20.74,31.64Z"/>
    </g>
  </g>
</svg>