<?xml version="1.0" encoding="UTF-8"?>
<svg id="Layer_2" data-name="Layer 2" xmlns="http://www.w3.org/2000/svg" viewBox="0 0 136.23 155.1">
  <defs>
    <style>
      .cls-1 {
        fill: #fff;
      }
    </style>
  </defs>
  <g id="Layer_1-2" data-name="Layer 1">
    <path class="cls-1" d="M63.55,32.26c-25.7,1.9-48.51,24.2-50.24,50.06-3.92,58.82,72.04,82.51,101.82,33.53,6.53-10.75,6.52-16.89,7.96-28.84,1.07-8.92,12.17-7.71,12.99-.45.94,8.3-2.89,22.07-6.42,29.67-23.76,51.13-97.33,51.81-122.55,2C-14.3,75.95,15.1,23.13,62.14,19.52c.16-.61-.25-.71-.53-1.06-2.62-3.41-10.05-7.95-9.72-12.52.36-5.06,6.59-7.72,10.58-4.62,6.04,6.99,14.85,13.42,20.55,20.49,2.34,2.9,2.64,5.8.34,8.84-6.97,5.99-13.31,14.66-20.33,20.36-6.51,5.29-14.2-2.09-9.74-8.32,2.51-3.51,7.64-6.77,10.26-10.44Z"/>
  </g>
</svg>